<mxfile host="app.diagrams.net" modified="2023-09-06T17:10:33.525Z" agent="Mozilla/5.0 (Macintosh; Intel Mac OS X 10_15_7) AppleWebKit/537.36 (KHTML, like Gecko) Chrome/115.0.0.0 Safari/537.36" etag="_zFW8iicEvc8pWyQXt_Z" version="21.3.7" type="github" pages="3">
  <diagram name="Splash page" id="03018318-947c-dd8e-b7a3-06fadd420f32">
    <mxGraphModel dx="1562" dy="885" grid="1" gridSize="10" guides="1" tooltips="1" connect="1" arrows="1" fold="1" page="1" pageScale="1" pageWidth="1100" pageHeight="850" background="none" math="0" shadow="0">
      <root>
        <mxCell id="0" />
        <mxCell id="1" parent="0" />
        <mxCell id="677b7b8949515195-1" value="" style="whiteSpace=wrap;html=1;rounded=0;shadow=0;labelBackgroundColor=none;strokeColor=#000000;strokeWidth=1;fillColor=none;fontFamily=Verdana;fontSize=12;fontColor=#000000;align=center;comic=1;" parent="1" vertex="1">
          <mxGeometry x="20" y="20" width="1060" height="810" as="geometry" />
        </mxCell>
        <mxCell id="677b7b8949515195-2" value="LOGO" style="whiteSpace=wrap;html=1;rounded=0;shadow=0;labelBackgroundColor=none;strokeWidth=1;fontFamily=Verdana;fontSize=28;align=center;comic=1;" parent="1" vertex="1">
          <mxGeometry x="40" y="60" width="190" height="50" as="geometry" />
        </mxCell>
        <mxCell id="677b7b8949515195-5" value="Report" style="text;html=1;points=[];align=left;verticalAlign=top;spacingTop=-4;fontSize=14;fontFamily=Verdana" parent="1" vertex="1">
          <mxGeometry x="900" y="40" width="60" height="20" as="geometry" />
        </mxCell>
        <mxCell id="677b7b8949515195-8" value="" style="whiteSpace=wrap;html=1;rounded=0;shadow=0;labelBackgroundColor=none;strokeWidth=1;fillColor=none;fontFamily=Verdana;fontSize=12;align=center;comic=1;" parent="1" vertex="1">
          <mxGeometry x="30" y="230" width="1040" height="420" as="geometry" />
        </mxCell>
        <mxCell id="677b7b8949515195-10" value="" style="whiteSpace=wrap;html=1;rounded=0;shadow=0;labelBackgroundColor=none;strokeWidth=1;fillColor=none;fontFamily=Verdana;fontSize=12;align=center;comic=1;" parent="1" vertex="1">
          <mxGeometry x="30" y="160" width="1040" height="50" as="geometry" />
        </mxCell>
        <mxCell id="677b7b8949515195-11" value="Section 1" style="text;html=1;points=[];align=left;verticalAlign=top;spacingTop=-4;fontSize=14;fontFamily=Verdana" parent="1" vertex="1">
          <mxGeometry x="70" y="175" width="60" height="25" as="geometry" />
        </mxCell>
        <mxCell id="677b7b8949515195-12" value="Section 2" style="text;html=1;points=[];align=left;verticalAlign=top;spacingTop=-4;fontSize=14;fontFamily=Verdana" parent="1" vertex="1">
          <mxGeometry x="200" y="175" width="60" height="20" as="geometry" />
        </mxCell>
        <mxCell id="677b7b8949515195-13" value="Section 3" style="text;html=1;points=[];align=left;verticalAlign=top;spacingTop=-4;fontSize=14;fontFamily=Verdana" parent="1" vertex="1">
          <mxGeometry x="320" y="175" width="60" height="20" as="geometry" />
        </mxCell>
        <mxCell id="677b7b8949515195-14" value="Section 4" style="text;html=1;points=[];align=left;verticalAlign=top;spacingTop=-4;fontSize=14;fontFamily=Verdana" parent="1" vertex="1">
          <mxGeometry x="460" y="175" width="60" height="20" as="geometry" />
        </mxCell>
        <mxCell id="gzuGPbXRsKbP8Gxhz4UM-1" value="Section 5" style="text;html=1;points=[];align=left;verticalAlign=top;spacingTop=-4;fontSize=14;fontFamily=Verdana" vertex="1" parent="1">
          <mxGeometry x="610" y="175" width="60" height="20" as="geometry" />
        </mxCell>
        <mxCell id="gzuGPbXRsKbP8Gxhz4UM-2" value="Section 6" style="text;html=1;points=[];align=left;verticalAlign=top;spacingTop=-4;fontSize=14;fontFamily=Verdana" vertex="1" parent="1">
          <mxGeometry x="740" y="175" width="60" height="20" as="geometry" />
        </mxCell>
        <mxCell id="gzuGPbXRsKbP8Gxhz4UM-3" value="Section 7" style="text;html=1;points=[];align=left;verticalAlign=top;spacingTop=-4;fontSize=14;fontFamily=Verdana" vertex="1" parent="1">
          <mxGeometry x="880" y="175" width="60" height="20" as="geometry" />
        </mxCell>
        <mxCell id="gzuGPbXRsKbP8Gxhz4UM-5" value="Mon/year" style="whiteSpace=wrap;html=1;rounded=0;shadow=0;labelBackgroundColor=none;strokeWidth=1;fontFamily=Verdana;fontSize=28;align=center;comic=1;" vertex="1" parent="1">
          <mxGeometry x="455" y="60" width="195" height="50" as="geometry" />
        </mxCell>
        <mxCell id="gzuGPbXRsKbP8Gxhz4UM-9" value="" style="ellipse;whiteSpace=wrap;html=1;aspect=fixed;" vertex="1" parent="1">
          <mxGeometry x="82.5" y="270" width="35" height="35" as="geometry" />
        </mxCell>
        <mxCell id="gzuGPbXRsKbP8Gxhz4UM-10" value="" style="ellipse;whiteSpace=wrap;html=1;aspect=fixed;" vertex="1" parent="1">
          <mxGeometry x="82.5" y="340" width="35" height="35" as="geometry" />
        </mxCell>
        <mxCell id="gzuGPbXRsKbP8Gxhz4UM-11" value="" style="ellipse;whiteSpace=wrap;html=1;aspect=fixed;" vertex="1" parent="1">
          <mxGeometry x="82.5" y="397.5" width="35" height="35" as="geometry" />
        </mxCell>
        <mxCell id="gzuGPbXRsKbP8Gxhz4UM-12" value="" style="ellipse;whiteSpace=wrap;html=1;aspect=fixed;" vertex="1" parent="1">
          <mxGeometry x="82.5" y="477.5" width="35" height="35" as="geometry" />
        </mxCell>
        <mxCell id="gzuGPbXRsKbP8Gxhz4UM-13" value="" style="ellipse;whiteSpace=wrap;html=1;aspect=fixed;" vertex="1" parent="1">
          <mxGeometry x="225" y="270" width="35" height="35" as="geometry" />
        </mxCell>
        <mxCell id="gzuGPbXRsKbP8Gxhz4UM-14" value="" style="ellipse;whiteSpace=wrap;html=1;aspect=fixed;" vertex="1" parent="1">
          <mxGeometry x="225" y="340" width="35" height="35" as="geometry" />
        </mxCell>
        <mxCell id="gzuGPbXRsKbP8Gxhz4UM-15" value="" style="ellipse;whiteSpace=wrap;html=1;aspect=fixed;" vertex="1" parent="1">
          <mxGeometry x="225" y="397.5" width="35" height="35" as="geometry" />
        </mxCell>
        <mxCell id="gzuGPbXRsKbP8Gxhz4UM-16" value="" style="ellipse;whiteSpace=wrap;html=1;aspect=fixed;" vertex="1" parent="1">
          <mxGeometry x="225" y="477.5" width="35" height="35" as="geometry" />
        </mxCell>
        <mxCell id="gzuGPbXRsKbP8Gxhz4UM-17" value="" style="ellipse;whiteSpace=wrap;html=1;aspect=fixed;" vertex="1" parent="1">
          <mxGeometry x="360" y="262.5" width="35" height="35" as="geometry" />
        </mxCell>
        <mxCell id="gzuGPbXRsKbP8Gxhz4UM-18" value="" style="ellipse;whiteSpace=wrap;html=1;aspect=fixed;" vertex="1" parent="1">
          <mxGeometry x="360" y="332.5" width="35" height="35" as="geometry" />
        </mxCell>
        <mxCell id="gzuGPbXRsKbP8Gxhz4UM-19" value="" style="ellipse;whiteSpace=wrap;html=1;aspect=fixed;" vertex="1" parent="1">
          <mxGeometry x="360" y="390" width="35" height="35" as="geometry" />
        </mxCell>
        <mxCell id="gzuGPbXRsKbP8Gxhz4UM-20" value="" style="ellipse;whiteSpace=wrap;html=1;aspect=fixed;" vertex="1" parent="1">
          <mxGeometry x="360" y="470" width="35" height="35" as="geometry" />
        </mxCell>
        <mxCell id="gzuGPbXRsKbP8Gxhz4UM-26" value="" style="ellipse;whiteSpace=wrap;html=1;aspect=fixed;" vertex="1" parent="1">
          <mxGeometry x="477.5" y="262.5" width="35" height="35" as="geometry" />
        </mxCell>
        <mxCell id="gzuGPbXRsKbP8Gxhz4UM-27" value="" style="ellipse;whiteSpace=wrap;html=1;aspect=fixed;" vertex="1" parent="1">
          <mxGeometry x="477.5" y="332.5" width="35" height="35" as="geometry" />
        </mxCell>
        <mxCell id="gzuGPbXRsKbP8Gxhz4UM-28" value="" style="ellipse;whiteSpace=wrap;html=1;aspect=fixed;" vertex="1" parent="1">
          <mxGeometry x="477.5" y="390" width="35" height="35" as="geometry" />
        </mxCell>
        <mxCell id="gzuGPbXRsKbP8Gxhz4UM-29" value="" style="ellipse;whiteSpace=wrap;html=1;aspect=fixed;" vertex="1" parent="1">
          <mxGeometry x="477.5" y="470" width="35" height="35" as="geometry" />
        </mxCell>
        <mxCell id="gzuGPbXRsKbP8Gxhz4UM-30" value="" style="ellipse;whiteSpace=wrap;html=1;aspect=fixed;" vertex="1" parent="1">
          <mxGeometry x="630" y="262.5" width="35" height="35" as="geometry" />
        </mxCell>
        <mxCell id="gzuGPbXRsKbP8Gxhz4UM-31" value="" style="ellipse;whiteSpace=wrap;html=1;aspect=fixed;" vertex="1" parent="1">
          <mxGeometry x="630" y="332.5" width="35" height="35" as="geometry" />
        </mxCell>
        <mxCell id="gzuGPbXRsKbP8Gxhz4UM-32" value="" style="ellipse;whiteSpace=wrap;html=1;aspect=fixed;" vertex="1" parent="1">
          <mxGeometry x="630" y="390" width="35" height="35" as="geometry" />
        </mxCell>
        <mxCell id="gzuGPbXRsKbP8Gxhz4UM-33" value="" style="ellipse;whiteSpace=wrap;html=1;aspect=fixed;" vertex="1" parent="1">
          <mxGeometry x="630" y="470" width="35" height="35" as="geometry" />
        </mxCell>
        <mxCell id="gzuGPbXRsKbP8Gxhz4UM-34" value="" style="ellipse;whiteSpace=wrap;html=1;aspect=fixed;" vertex="1" parent="1">
          <mxGeometry x="760" y="270" width="35" height="35" as="geometry" />
        </mxCell>
        <mxCell id="gzuGPbXRsKbP8Gxhz4UM-35" value="" style="ellipse;whiteSpace=wrap;html=1;aspect=fixed;" vertex="1" parent="1">
          <mxGeometry x="760" y="340" width="35" height="35" as="geometry" />
        </mxCell>
        <mxCell id="gzuGPbXRsKbP8Gxhz4UM-36" value="" style="ellipse;whiteSpace=wrap;html=1;aspect=fixed;" vertex="1" parent="1">
          <mxGeometry x="760" y="397.5" width="35" height="35" as="geometry" />
        </mxCell>
        <mxCell id="gzuGPbXRsKbP8Gxhz4UM-37" value="" style="ellipse;whiteSpace=wrap;html=1;aspect=fixed;" vertex="1" parent="1">
          <mxGeometry x="760" y="477.5" width="35" height="35" as="geometry" />
        </mxCell>
        <mxCell id="gzuGPbXRsKbP8Gxhz4UM-38" value="" style="ellipse;whiteSpace=wrap;html=1;aspect=fixed;" vertex="1" parent="1">
          <mxGeometry x="900" y="270" width="40" height="40" as="geometry" />
        </mxCell>
        <mxCell id="gzuGPbXRsKbP8Gxhz4UM-39" value="" style="ellipse;whiteSpace=wrap;html=1;aspect=fixed;" vertex="1" parent="1">
          <mxGeometry x="895" y="340" width="35" height="35" as="geometry" />
        </mxCell>
        <mxCell id="gzuGPbXRsKbP8Gxhz4UM-40" value="" style="ellipse;whiteSpace=wrap;html=1;aspect=fixed;" vertex="1" parent="1">
          <mxGeometry x="895" y="397.5" width="35" height="35" as="geometry" />
        </mxCell>
        <mxCell id="gzuGPbXRsKbP8Gxhz4UM-41" value="" style="ellipse;whiteSpace=wrap;html=1;aspect=fixed;" vertex="1" parent="1">
          <mxGeometry x="895" y="477.5" width="35" height="35" as="geometry" />
        </mxCell>
        <mxCell id="cvRHS9d1KzE3qvVEQX-d-2" value="checkin block&lt;br&gt;" style="text;html=1;points=[];align=left;verticalAlign=top;spacingTop=-4;fontSize=14;fontFamily=Verdana" vertex="1" parent="1">
          <mxGeometry x="990" y="40" width="60" height="20" as="geometry" />
        </mxCell>
      </root>
    </mxGraphModel>
  </diagram>
  <diagram id="HzAyq3bULW1CsUGAQFjL" name="tasks Feature 1(CRUD)">
    <mxGraphModel dx="1562" dy="885" grid="1" gridSize="10" guides="1" tooltips="1" connect="1" arrows="1" fold="1" page="1" pageScale="1" pageWidth="827" pageHeight="1169" math="0" shadow="0">
      <root>
        <mxCell id="0" />
        <mxCell id="1" parent="0" />
        <mxCell id="LJAVsd4vpqmhmT_unBGZ-1" value="" style="whiteSpace=wrap;html=1;rounded=0;shadow=0;labelBackgroundColor=none;strokeColor=#000000;strokeWidth=1;fillColor=none;fontFamily=Verdana;fontSize=12;fontColor=#000000;align=center;comic=1;" vertex="1" parent="1">
          <mxGeometry x="20" y="20" width="1060" height="810" as="geometry" />
        </mxCell>
        <mxCell id="LJAVsd4vpqmhmT_unBGZ-2" value="LOGO" style="whiteSpace=wrap;html=1;rounded=0;shadow=0;labelBackgroundColor=none;strokeWidth=1;fontFamily=Verdana;fontSize=28;align=center;comic=1;" vertex="1" parent="1">
          <mxGeometry x="40" y="60" width="190" height="50" as="geometry" />
        </mxCell>
        <mxCell id="LJAVsd4vpqmhmT_unBGZ-3" value="Report" style="text;html=1;points=[];align=left;verticalAlign=top;spacingTop=-4;fontSize=14;fontFamily=Verdana" vertex="1" parent="1">
          <mxGeometry x="900" y="40" width="60" height="20" as="geometry" />
        </mxCell>
        <mxCell id="LJAVsd4vpqmhmT_unBGZ-4" value="" style="whiteSpace=wrap;html=1;rounded=0;shadow=0;labelBackgroundColor=none;strokeWidth=1;fillColor=none;fontFamily=Verdana;fontSize=12;align=center;comic=1;" vertex="1" parent="1">
          <mxGeometry x="30" y="230" width="1040" height="320" as="geometry" />
        </mxCell>
        <mxCell id="LJAVsd4vpqmhmT_unBGZ-5" value="" style="whiteSpace=wrap;html=1;rounded=0;shadow=0;labelBackgroundColor=none;strokeWidth=1;fillColor=none;fontFamily=Verdana;fontSize=12;align=center;comic=1;" vertex="1" parent="1">
          <mxGeometry x="30" y="160" width="1040" height="50" as="geometry" />
        </mxCell>
        <mxCell id="LJAVsd4vpqmhmT_unBGZ-6" value="Section 1" style="text;html=1;points=[];align=left;verticalAlign=top;spacingTop=-4;fontSize=14;fontFamily=Verdana" vertex="1" parent="1">
          <mxGeometry x="70" y="175" width="60" height="25" as="geometry" />
        </mxCell>
        <mxCell id="LJAVsd4vpqmhmT_unBGZ-7" value="Section 2" style="text;html=1;points=[];align=left;verticalAlign=top;spacingTop=-4;fontSize=14;fontFamily=Verdana" vertex="1" parent="1">
          <mxGeometry x="200" y="175" width="60" height="20" as="geometry" />
        </mxCell>
        <mxCell id="LJAVsd4vpqmhmT_unBGZ-8" value="Section 3" style="text;html=1;points=[];align=left;verticalAlign=top;spacingTop=-4;fontSize=14;fontFamily=Verdana" vertex="1" parent="1">
          <mxGeometry x="320" y="175" width="60" height="20" as="geometry" />
        </mxCell>
        <mxCell id="LJAVsd4vpqmhmT_unBGZ-9" value="Section 4" style="text;html=1;points=[];align=left;verticalAlign=top;spacingTop=-4;fontSize=14;fontFamily=Verdana" vertex="1" parent="1">
          <mxGeometry x="460" y="175" width="60" height="20" as="geometry" />
        </mxCell>
        <mxCell id="LJAVsd4vpqmhmT_unBGZ-10" value="Section 5" style="text;html=1;points=[];align=left;verticalAlign=top;spacingTop=-4;fontSize=14;fontFamily=Verdana" vertex="1" parent="1">
          <mxGeometry x="610" y="175" width="60" height="20" as="geometry" />
        </mxCell>
        <mxCell id="LJAVsd4vpqmhmT_unBGZ-11" value="Section 6" style="text;html=1;points=[];align=left;verticalAlign=top;spacingTop=-4;fontSize=14;fontFamily=Verdana" vertex="1" parent="1">
          <mxGeometry x="740" y="175" width="60" height="20" as="geometry" />
        </mxCell>
        <mxCell id="LJAVsd4vpqmhmT_unBGZ-12" value="Section 7" style="text;html=1;points=[];align=left;verticalAlign=top;spacingTop=-4;fontSize=14;fontFamily=Verdana" vertex="1" parent="1">
          <mxGeometry x="880" y="175" width="60" height="20" as="geometry" />
        </mxCell>
        <mxCell id="LJAVsd4vpqmhmT_unBGZ-13" value="Mon/year" style="whiteSpace=wrap;html=1;rounded=0;shadow=0;labelBackgroundColor=none;strokeWidth=1;fontFamily=Verdana;fontSize=28;align=center;comic=1;" vertex="1" parent="1">
          <mxGeometry x="455" y="60" width="195" height="50" as="geometry" />
        </mxCell>
        <mxCell id="LJAVsd4vpqmhmT_unBGZ-14" value="" style="ellipse;whiteSpace=wrap;html=1;aspect=fixed;" vertex="1" parent="1">
          <mxGeometry x="82.5" y="270" width="35" height="35" as="geometry" />
        </mxCell>
        <mxCell id="LJAVsd4vpqmhmT_unBGZ-15" value="" style="ellipse;whiteSpace=wrap;html=1;aspect=fixed;" vertex="1" parent="1">
          <mxGeometry x="82.5" y="340" width="35" height="35" as="geometry" />
        </mxCell>
        <mxCell id="LJAVsd4vpqmhmT_unBGZ-16" value="" style="ellipse;whiteSpace=wrap;html=1;aspect=fixed;" vertex="1" parent="1">
          <mxGeometry x="82.5" y="397.5" width="35" height="35" as="geometry" />
        </mxCell>
        <mxCell id="LJAVsd4vpqmhmT_unBGZ-17" value="" style="ellipse;whiteSpace=wrap;html=1;aspect=fixed;" vertex="1" parent="1">
          <mxGeometry x="82.5" y="477.5" width="35" height="35" as="geometry" />
        </mxCell>
        <mxCell id="LJAVsd4vpqmhmT_unBGZ-18" value="" style="ellipse;whiteSpace=wrap;html=1;aspect=fixed;" vertex="1" parent="1">
          <mxGeometry x="225" y="270" width="35" height="35" as="geometry" />
        </mxCell>
        <mxCell id="LJAVsd4vpqmhmT_unBGZ-19" value="" style="ellipse;whiteSpace=wrap;html=1;aspect=fixed;" vertex="1" parent="1">
          <mxGeometry x="225" y="340" width="35" height="35" as="geometry" />
        </mxCell>
        <mxCell id="LJAVsd4vpqmhmT_unBGZ-20" value="" style="ellipse;whiteSpace=wrap;html=1;aspect=fixed;" vertex="1" parent="1">
          <mxGeometry x="225" y="397.5" width="35" height="35" as="geometry" />
        </mxCell>
        <mxCell id="LJAVsd4vpqmhmT_unBGZ-21" value="" style="ellipse;whiteSpace=wrap;html=1;aspect=fixed;" vertex="1" parent="1">
          <mxGeometry x="225" y="477.5" width="35" height="35" as="geometry" />
        </mxCell>
        <mxCell id="LJAVsd4vpqmhmT_unBGZ-22" value="" style="ellipse;whiteSpace=wrap;html=1;aspect=fixed;" vertex="1" parent="1">
          <mxGeometry x="360" y="262.5" width="35" height="35" as="geometry" />
        </mxCell>
        <mxCell id="LJAVsd4vpqmhmT_unBGZ-23" value="" style="ellipse;whiteSpace=wrap;html=1;aspect=fixed;" vertex="1" parent="1">
          <mxGeometry x="360" y="332.5" width="35" height="35" as="geometry" />
        </mxCell>
        <mxCell id="LJAVsd4vpqmhmT_unBGZ-24" value="" style="ellipse;whiteSpace=wrap;html=1;aspect=fixed;" vertex="1" parent="1">
          <mxGeometry x="360" y="390" width="35" height="35" as="geometry" />
        </mxCell>
        <mxCell id="LJAVsd4vpqmhmT_unBGZ-25" value="" style="ellipse;whiteSpace=wrap;html=1;aspect=fixed;" vertex="1" parent="1">
          <mxGeometry x="360" y="470" width="35" height="35" as="geometry" />
        </mxCell>
        <mxCell id="LJAVsd4vpqmhmT_unBGZ-26" value="" style="ellipse;whiteSpace=wrap;html=1;aspect=fixed;" vertex="1" parent="1">
          <mxGeometry x="477.5" y="262.5" width="35" height="35" as="geometry" />
        </mxCell>
        <mxCell id="LJAVsd4vpqmhmT_unBGZ-27" value="" style="ellipse;whiteSpace=wrap;html=1;aspect=fixed;" vertex="1" parent="1">
          <mxGeometry x="477.5" y="332.5" width="35" height="35" as="geometry" />
        </mxCell>
        <mxCell id="LJAVsd4vpqmhmT_unBGZ-28" value="" style="ellipse;whiteSpace=wrap;html=1;aspect=fixed;" vertex="1" parent="1">
          <mxGeometry x="477.5" y="390" width="35" height="35" as="geometry" />
        </mxCell>
        <mxCell id="LJAVsd4vpqmhmT_unBGZ-29" value="" style="ellipse;whiteSpace=wrap;html=1;aspect=fixed;" vertex="1" parent="1">
          <mxGeometry x="477.5" y="470" width="35" height="35" as="geometry" />
        </mxCell>
        <mxCell id="LJAVsd4vpqmhmT_unBGZ-30" value="" style="ellipse;whiteSpace=wrap;html=1;aspect=fixed;" vertex="1" parent="1">
          <mxGeometry x="630" y="262.5" width="35" height="35" as="geometry" />
        </mxCell>
        <mxCell id="LJAVsd4vpqmhmT_unBGZ-31" value="" style="ellipse;whiteSpace=wrap;html=1;aspect=fixed;" vertex="1" parent="1">
          <mxGeometry x="630" y="332.5" width="35" height="35" as="geometry" />
        </mxCell>
        <mxCell id="LJAVsd4vpqmhmT_unBGZ-32" value="" style="ellipse;whiteSpace=wrap;html=1;aspect=fixed;" vertex="1" parent="1">
          <mxGeometry x="630" y="390" width="35" height="35" as="geometry" />
        </mxCell>
        <mxCell id="LJAVsd4vpqmhmT_unBGZ-33" value="" style="ellipse;whiteSpace=wrap;html=1;aspect=fixed;" vertex="1" parent="1">
          <mxGeometry x="630" y="470" width="35" height="35" as="geometry" />
        </mxCell>
        <mxCell id="LJAVsd4vpqmhmT_unBGZ-34" value="" style="ellipse;whiteSpace=wrap;html=1;aspect=fixed;" vertex="1" parent="1">
          <mxGeometry x="760" y="270" width="35" height="35" as="geometry" />
        </mxCell>
        <mxCell id="LJAVsd4vpqmhmT_unBGZ-35" value="" style="ellipse;whiteSpace=wrap;html=1;aspect=fixed;" vertex="1" parent="1">
          <mxGeometry x="760" y="340" width="35" height="35" as="geometry" />
        </mxCell>
        <mxCell id="LJAVsd4vpqmhmT_unBGZ-36" value="" style="ellipse;whiteSpace=wrap;html=1;aspect=fixed;" vertex="1" parent="1">
          <mxGeometry x="760" y="397.5" width="35" height="35" as="geometry" />
        </mxCell>
        <mxCell id="LJAVsd4vpqmhmT_unBGZ-37" value="" style="ellipse;whiteSpace=wrap;html=1;aspect=fixed;" vertex="1" parent="1">
          <mxGeometry x="760" y="477.5" width="35" height="35" as="geometry" />
        </mxCell>
        <mxCell id="LJAVsd4vpqmhmT_unBGZ-38" value="" style="ellipse;whiteSpace=wrap;html=1;aspect=fixed;" vertex="1" parent="1">
          <mxGeometry x="900" y="270" width="40" height="40" as="geometry" />
        </mxCell>
        <mxCell id="LJAVsd4vpqmhmT_unBGZ-39" value="" style="ellipse;whiteSpace=wrap;html=1;aspect=fixed;" vertex="1" parent="1">
          <mxGeometry x="895" y="340" width="35" height="35" as="geometry" />
        </mxCell>
        <mxCell id="LJAVsd4vpqmhmT_unBGZ-40" value="" style="ellipse;whiteSpace=wrap;html=1;aspect=fixed;" vertex="1" parent="1">
          <mxGeometry x="895" y="397.5" width="35" height="35" as="geometry" />
        </mxCell>
        <mxCell id="LJAVsd4vpqmhmT_unBGZ-41" value="" style="ellipse;whiteSpace=wrap;html=1;aspect=fixed;" vertex="1" parent="1">
          <mxGeometry x="895" y="477.5" width="35" height="35" as="geometry" />
        </mxCell>
        <mxCell id="LJAVsd4vpqmhmT_unBGZ-42" value="checkin block&lt;br&gt;" style="text;html=1;points=[];align=left;verticalAlign=top;spacingTop=-4;fontSize=14;fontFamily=Verdana" vertex="1" parent="1">
          <mxGeometry x="990" y="40" width="60" height="20" as="geometry" />
        </mxCell>
      </root>
    </mxGraphModel>
  </diagram>
  <diagram id="9uj736PdaMLw37xizz2J" name="journals Feature 2(CRUD)">
    <mxGraphModel dx="1562" dy="885" grid="1" gridSize="10" guides="1" tooltips="1" connect="1" arrows="1" fold="1" page="1" pageScale="1" pageWidth="827" pageHeight="1169" math="0" shadow="0">
      <root>
        <mxCell id="0" />
        <mxCell id="1" parent="0" />
      </root>
    </mxGraphModel>
  </diagram>
</mxfile>
